# xmcd
#
# Track frame offsets: 
#        150
#        16311
#        36362
#        50247
#        57576
#        79277
#        94932
#        110790
#        128756
#        141293
#        156338
#        168762
#
# Disc length: 2555 seconds
#
# Revision: 0
# Processed by: cddbd v1.5.2PL0 Copyright (c) Steve Scherf et al.
# Submitted via: ExactAudioCopy v1.0b1
#
DISCID=ad09f90c
DTITLE=Fajerwerk - Drań
DYEAR=2001
DGENRE=Country
TTITLE0=Drań
TTITLE1=Przed nami szlak
TTITLE2=Droga
TTITLE3=Polka Country
TTITLE4=Będziesz moja
TTITLE5=Wciskam gaz
TTITLE6=Jedyna
TTITLE7=Taniec z życiem
TTITLE8=Recepta
TTITLE9=Tysiąc historii o miłości
TTITLE10=Muza
TTITLE11=Poker
EXTD=
EXTT0=
EXTT1=
EXTT2=
EXTT3=
EXTT4=
EXTT5=
EXTT6=
EXTT7=
EXTT8=
EXTT9=
EXTT10=
EXTT11=
PLAYORDER=
